<svg width="20" height="21" viewBox="0 0 20 21" fill="none" xmlns="http://www.w3.org/2000/svg">
<path d="M4.91667 14.6667H12.2083V16.75H4.91667V14.6667ZM4.91667 10.5H15.3333V12.5833H4.91667V10.5ZM4.91667 6.33333H15.3333V8.41666H4.91667V6.33333ZM17.4167 2.16666H13.0625C12.625 0.958328 11.4792 0.0833282 10.125 0.0833282C8.77083 0.0833282 7.625 0.958328 7.1875 2.16666H2.83333C2.6875 2.16666 2.55208 2.17708 2.41667 2.20833C2.01042 2.29166 1.64583 2.49999 1.36458 2.78124C1.17708 2.96874 1.02083 3.19791 0.916667 3.44791C0.8125 3.68749 0.75 3.95833 0.75 4.24999V18.8333C0.75 19.1146 0.8125 19.3958 0.916667 19.6458C1.02083 19.8958 1.17708 20.1146 1.36458 20.3125C1.64583 20.5937 2.01042 20.8021 2.41667 20.8854C2.55208 20.9062 2.6875 20.9167 2.83333 20.9167H17.4167C18.5625 20.9167 19.5 19.9792 19.5 18.8333V4.24999C19.5 3.10416 18.5625 2.16666 17.4167 2.16666ZM10.125 1.90624C10.5521 1.90624 10.9062 2.26041 10.9062 2.68749C10.9062 3.11458 10.5521 3.46874 10.125 3.46874C9.69792 3.46874 9.34375 3.11458 9.34375 2.68749C9.34375 2.26041 9.69792 1.90624 10.125 1.90624ZM17.4167 18.8333H2.83333V4.24999H17.4167V18.8333Z" fill="#888B99"/>
</svg>
