<svg width="20" height="16" viewBox="0 0 20 16" fill="none" xmlns="http://www.w3.org/2000/svg">
<path d="M17.8002 7.78035L17.9061 7.56131L17.7991 7.34279C16.3406 4.36383 13.3502 2.47933 10 2.47933C9.48498 2.47933 8.98821 2.53685 8.50841 2.62226L7.92876 2.04261C8.59541 1.89213 9.2876 1.81266 10 1.81266C13.8839 1.81266 17.213 4.18555 18.6272 7.56309C18.1401 8.7309 17.4219 9.77232 16.5295 10.6434L16.065 10.1789C16.7656 9.49835 17.3585 8.69357 17.8002 7.78035ZM10.2052 4.31904C11.8352 4.42065 13.1417 5.72457 13.2363 7.3501L12.3164 6.43024C12.0645 5.91172 11.6427 5.48984 11.1241 5.23798L10.2052 4.31904ZM2.85119 0.729455L16.918 14.8042L16.45 15.2722L13.9536 12.7758L13.7214 12.5436L13.4161 12.6644C12.3571 13.0832 11.2028 13.3127 10 13.3127C6.11604 13.3127 2.78696 10.9397 1.37277 7.56198C1.98792 6.08337 2.97768 4.80425 4.21718 3.83091L4.66055 3.48273L4.26193 3.08411L2.3809 1.20308L2.85119 0.729455ZM8.27859 7.10078L7.42504 6.24722V7.44401C7.42495 7.44475 7.42485 7.44557 7.42473 7.44648L7.4244 7.44912C7.42209 7.46744 7.41671 7.51014 7.41671 7.56266C7.41671 8.9888 8.5739 10.146 10 10.146C10.0983 10.146 10.1866 10.1233 10.2158 10.1158C10.218 10.1153 10.2198 10.1148 10.2213 10.1144L11.078 9.90022L10.4536 9.27577L8.27859 7.10078ZM5.44526 4.26744L5.13658 3.95876L4.78908 4.22298C3.72422 5.03263 2.82147 6.07521 2.20096 7.34283L2.09334 7.56269L2.20098 7.78253C3.65952 10.7615 6.64992 12.646 10 12.646C10.8411 12.646 11.6521 12.522 12.4233 12.3117L13.2545 12.085L12.6453 11.4758L11.8286 10.6591L11.5898 10.4203L11.2791 10.5526C10.8895 10.7186 10.456 10.8127 10 10.8127C8.20952 10.8127 6.75004 9.35319 6.75004 7.56266C6.75004 7.10725 6.84389 6.67264 7.01133 6.27223L7.1407 5.96288L6.90359 5.72578L5.44526 4.26744Z" fill="white" stroke="white"/>
</svg>
