<svg width="14" height="18" viewBox="0 0 14 18" fill="none" xmlns="http://www.w3.org/2000/svg">
<path d="M10.6666 6.08333V6.58333H11.1666H11.9999C12.6404 6.58333 13.1666 7.10948 13.1666 7.75V16.0833C13.1666 16.7239 12.6404 17.25 11.9999 17.25H1.99992C1.35939 17.25 0.833252 16.7239 0.833252 16.0833V7.75C0.833252 7.10948 1.35939 6.58333 1.99992 6.58333H2.83325H3.33325V6.08333V4.41667C3.33325 2.39281 4.97606 0.75 6.99992 0.75C9.02378 0.75 10.6666 2.39281 10.6666 4.41667V6.08333ZM3.99992 6.08333V6.58333H4.49992H9.49992H9.99992V6.08333V4.41667C9.99992 2.75719 8.65939 1.41667 6.99992 1.41667C5.34044 1.41667 3.99992 2.75719 3.99992 4.41667V6.08333ZM4.83325 11.9167C4.83325 13.1095 5.80711 14.0833 6.99992 14.0833C8.19273 14.0833 9.16658 13.1095 9.16658 11.9167C9.16658 10.7239 8.19273 9.75 6.99992 9.75C5.80711 9.75 4.83325 10.7239 4.83325 11.9167Z" fill="white" stroke="white"/>
</svg>
