<svg width="18" height="14" viewBox="0 0 18 14" fill="none" xmlns="http://www.w3.org/2000/svg">
<path d="M1.17508 2.00058V2.00016C1.17508 1.35637 1.69615 0.833496 2.33341 0.833496H15.6667C16.3073 0.833496 16.8334 1.35964 16.8334 2.00016V12.0002C16.8334 12.6407 16.3073 13.1668 15.6667 13.1668H2.33341C1.69295 13.1668 1.16685 12.6408 1.16675 12.0003C1.16675 12.0003 1.16675 12.0002 1.16675 12.0002L1.17508 2.00058ZM15.5985 4.29913L15.5985 4.29915L15.6029 4.2963C15.9508 4.07368 16.1667 3.69212 16.1667 3.27516C16.1667 2.31785 15.1231 1.75706 14.3218 2.24908L14.3218 2.24906L14.3183 2.25123L9.00008 5.57711L3.68186 2.25123L3.68187 2.25122L3.67838 2.24908C2.8771 1.75706 1.83341 2.31785 1.83341 3.27516C1.83341 3.69212 2.04938 4.07368 2.39722 4.2963L2.39721 4.29632L2.40169 4.29913L8.29336 7.98246L8.29342 7.9825C8.72222 8.2505 9.27795 8.2505 9.70675 7.9825L9.7068 7.98246L15.5985 4.29913Z" fill="white" stroke="white"/>
</svg>
