<svg width="22" height="21" viewBox="0 0 22 21" fill="none" xmlns="http://www.w3.org/2000/svg">
<path d="M18.9583 0.0833282H2.29167C1.25 0.0833282 0.208332 1.02083 0.208332 2.16666V5.30208C0.208332 6.05208 0.656249 6.69791 1.25 7.06249V18.8333C1.25 19.9792 2.39583 20.9167 3.33333 20.9167H17.9167C18.8542 20.9167 20 19.9792 20 18.8333V7.06249C20.5937 6.69791 21.0417 6.05208 21.0417 5.30208V2.16666C21.0417 1.02083 20 0.0833282 18.9583 0.0833282ZM17.9167 18.8333H3.33333V7.37499H17.9167V18.8333ZM18.9583 5.29166H2.29167V2.16666H18.9583V5.29166Z" fill="#888B99"/>
<path d="M13.75 10.5H7.5V12.5833H13.75V10.5Z" fill="#888B99"/>
</svg>
