<svg width="18" height="18" viewBox="0 0 18 18" fill="none" xmlns="http://www.w3.org/2000/svg">
<path d="M15.25 8.99984C15.25 8.80817 15.2417 8.62484 15.225 8.43317L16.775 7.25817C17.1083 7.00817 17.2 6.5415 16.9917 6.17484L15.4333 3.48317C15.225 3.1165 14.775 2.9665 14.3917 3.13317L12.6 3.8915C12.2917 3.67484 11.9667 3.48317 11.625 3.32484L11.3833 1.39984C11.3333 0.983171 10.975 0.666504 10.5583 0.666504H7.45C7.025 0.666504 6.66666 0.983171 6.61666 1.39984L6.375 3.32484C6.03333 3.48317 5.70833 3.67484 5.4 3.8915L3.60833 3.13317C3.225 2.9665 2.775 3.1165 2.56666 3.48317L1.00833 6.18317C0.799996 6.54984 0.891662 7.00817 1.225 7.2665L2.775 8.4415C2.75833 8.62484 2.75 8.80817 2.75 8.99984C2.75 9.1915 2.75833 9.37484 2.775 9.5665L1.225 10.7415C0.891662 10.9915 0.799996 11.4582 1.00833 11.8248L2.56666 14.5165C2.775 14.8832 3.225 15.0332 3.60833 14.8665L5.4 14.1082C5.70833 14.3248 6.03333 14.5165 6.375 14.6748L6.61666 16.5998C6.66666 17.0165 7.025 17.3332 7.44166 17.3332H10.55C10.9667 17.3332 11.325 17.0165 11.375 16.5998L11.6167 14.6748C11.9583 14.5165 12.2833 14.3248 12.5917 14.1082L14.3833 14.8665C14.7667 15.0332 15.2167 14.8832 15.425 14.5165L16.9833 11.8248C17.1917 11.4582 17.1 10.9998 16.7667 10.7415L15.2167 9.5665C15.2417 9.37484 15.25 9.1915 15.25 8.99984ZM9.03333 11.9165C7.42499 11.9165 6.11666 10.6082 6.11666 8.99984C6.11666 7.3915 7.42499 6.08317 9.03333 6.08317C10.6417 6.08317 11.95 7.3915 11.95 8.99984C11.95 10.6082 10.6417 11.9165 9.03333 11.9165Z" fill="#9FA1AD"/>
</svg>
