<svg width="18" height="16" viewBox="0 0 18 16" fill="none" xmlns="http://www.w3.org/2000/svg">
<path d="M17.2483 5.40833L16.3733 1.76667C16.19 1.01667 15.54 0.5 14.7816 0.5H3.20663C2.45663 0.5 1.7983 1.025 1.6233 1.76667L0.748297 5.40833C0.548297 6.25833 0.73163 7.125 1.26496 7.80833C1.33163 7.9 1.4233 7.96667 1.4983 8.05V13.8333C1.4983 14.75 2.2483 15.5 3.16496 15.5H14.8316C15.7483 15.5 16.4983 14.75 16.4983 13.8333V8.05C16.5733 7.975 16.665 7.9 16.7316 7.81667C17.265 7.13333 17.4566 6.25833 17.2483 5.40833ZM14.7566 2.15833L15.6316 5.8C15.715 6.15 15.64 6.5 15.4233 6.775C15.3066 6.925 15.0566 7.16667 14.64 7.16667C14.1316 7.16667 13.69 6.75833 13.6316 6.21667L13.1483 2.16667L14.7566 2.15833ZM9.83163 2.16667H11.465L11.915 5.93333C11.9566 6.25833 11.8566 6.58333 11.64 6.825C11.4566 7.04167 11.19 7.16667 10.8483 7.16667C10.29 7.16667 9.83163 6.675 9.83163 6.075V2.16667ZM6.0733 5.93333L6.53163 2.16667H8.16496V6.075C8.16496 6.675 7.70663 7.16667 7.08996 7.16667C6.80663 7.16667 6.5483 7.04167 6.3483 6.825C6.13996 6.58333 6.03996 6.25833 6.0733 5.93333ZM2.36496 5.8L3.20663 2.16667H4.8483L4.36496 6.21667C4.2983 6.75833 3.86496 7.16667 3.35663 7.16667C2.9483 7.16667 2.68996 6.925 2.58163 6.775C2.35663 6.50833 2.28163 6.15 2.36496 5.8ZM3.16496 13.8333V8.80833C3.23163 8.81667 3.28996 8.83333 3.35663 8.83333C4.08163 8.83333 4.73996 8.53333 5.2233 8.04167C5.7233 8.54167 6.38996 8.83333 7.1483 8.83333C7.8733 8.83333 8.5233 8.53333 9.00663 8.05833C9.4983 8.53333 10.165 8.83333 10.915 8.83333C11.615 8.83333 12.2816 8.54167 12.7816 8.04167C13.265 8.53333 13.9233 8.83333 14.6483 8.83333C14.715 8.83333 14.7733 8.81667 14.84 8.80833V13.8333H3.16496Z" fill="#9FA1AD"/>
</svg>
