<svg width="22" height="19" viewBox="0 0 22 19" fill="none" xmlns="http://www.w3.org/2000/svg">
<path d="M21.1853 6.26042L20.0915 1.70833C19.8623 0.770833 19.0498 0.125 18.1019 0.125H3.63318C2.69568 0.125 1.87276 0.78125 1.65401 1.70833L0.560264 6.26042C0.310264 7.32292 0.539431 8.40625 1.2061 9.26042C1.28943 9.375 1.40401 9.45833 1.49776 9.5625V16.7917C1.49776 17.9375 2.43526 18.875 3.5811 18.875H18.1644C19.3103 18.875 20.2478 17.9375 20.2478 16.7917V9.5625C20.3415 9.46875 20.4561 9.375 20.5394 9.27083C21.2061 8.41667 21.4457 7.32292 21.1853 6.26042ZM18.0707 2.19792L19.1644 6.75C19.2686 7.1875 19.1748 7.625 18.904 7.96875C18.7582 8.15625 18.4457 8.45833 17.9248 8.45833C17.2894 8.45833 16.7373 7.94792 16.6644 7.27083L16.0603 2.20833L18.0707 2.19792ZM11.9144 2.20833H13.9561L14.5186 6.91667C14.5707 7.32292 14.4457 7.72917 14.1748 8.03125C13.9457 8.30208 13.6123 8.45833 13.1853 8.45833C12.4873 8.45833 11.9144 7.84375 11.9144 7.09375V2.20833ZM7.21651 6.91667L7.78943 2.20833H9.8311V7.09375C9.8311 7.84375 9.25818 8.45833 8.48735 8.45833C8.13318 8.45833 7.81026 8.30208 7.56026 8.03125C7.29985 7.72917 7.17485 7.32292 7.21651 6.91667ZM2.5811 6.75L3.63318 2.20833H5.68526L5.0811 7.27083C4.99776 7.94792 4.4561 8.45833 3.82068 8.45833C3.31026 8.45833 2.98735 8.15625 2.85193 7.96875C2.57068 7.63542 2.47693 7.1875 2.5811 6.75ZM3.5811 16.7917V10.5104C3.66443 10.5208 3.73735 10.5417 3.82068 10.5417C4.72693 10.5417 5.54985 10.1667 6.15401 9.55208C6.77901 10.1771 7.61235 10.5417 8.56026 10.5417C9.46651 10.5417 10.279 10.1667 10.8832 9.57292C11.4978 10.1667 12.3311 10.5417 13.2686 10.5417C14.1436 10.5417 14.9769 10.1771 15.6019 9.55208C16.2061 10.1667 17.029 10.5417 17.9353 10.5417C18.0186 10.5417 18.0915 10.5208 18.1748 10.5104V16.7917H3.5811Z" fill="white"/>
</svg>
